# xmcd
#
# Track frame offsets: 
#        182
#        11480
#        27200
#        41002
#        59660
#        75937
#        93315
#        104957
#        116302
#        133237
#
# Disc length: 1950 seconds
#
# Revision: 0
# Processed by: cddbd v1.4PL0 Copyright (c) Steve Scherf et al.
# Submitted via: ExactAudioCopy v0.90b3
#
DISCID=7f079c0a
DTITLE=Highway 101 - Country Classics
DYEAR=1900
DGENRE=Country
TTITLE0=Cry, Cry, Cry
TTITLE1=The Bed You Made For Me
TTITLE2=Whiskey, If You Were A Woman
TTITLE3=Woman Walk The Line
TTITLE4=All The Reasons Why
TTITLE5=Setting Me Up
TTITLE6=Walkin', Talkin', Cryin' Barely Beatin' Broken Heart
TTITLE7=Bing Bang Boom
TTITLE8=Somewhere Between Gone And Goodbye
TTITLE9=Baby, I'm Missing You
EXTD=
EXTT0=
EXTT1=
EXTT2=
EXTT3=
EXTT4=
EXTT5=
EXTT6=
EXTT7=
EXTT8=
EXTT9=
PLAYORDER=
